# xmcd CD database file
#
# Track frame offsets:
#	172
#	19385
#	34330
#	50157
#	71362
#	87135
#	104370
#	121100
#	139265
#	157755
#
# Disc length: 2338 seconds
#
# Revision: 0
# Processed by: cddbd v1.4PL0 Copyright (c) Steve Scherf et al.
# Submitted via: Feurio! 1.65 - http://www.feurio.com
#
DISCID=8109200a
DTITLE=Alex Taylor - Dancing With The Devil
DYEAR=1991
DGENRE=Blues Rock
TTITLE0=House Of Cards
TTITLE1=Can't Break The Habit
TTITLE2=Let The Big Dog Eat
TTITLE3=Birds Of A Feather
TTITLE4=A Change In Me
TTITLE5=Dancing With The Devil
TTITLE6=No Life At All
TTITLE7=Practice What You Preach
TTITLE8=Black Sheep
TTITLE9=Bait My Hook
EXTD=(c) 1991 Ichiban Records
EXTT0=
EXTT1=
EXTT2=
EXTT3=
EXTT4=
EXTT5=
EXTT6=
EXTT7=
EXTT8=
EXTT9=
PLAYORDER=
